<svg xmlns="http://www.w3.org/2000/svg" width="3.217" height="9" viewBox="0 0 3.217 9">
  <path id="Path_15058" data-name="Path 15058" d="M3.229-.639l-.088.375a7.757,7.757,0,0,1-.861.3,2.218,2.218,0,0,1-.551.085.934.934,0,0,1-.7-.243.832.832,0,0,1-.234-.6A1.781,1.781,0,0,1,.814-1q.023-.146.076-.369l.621-2.49q.047-.205.091-.439a2.219,2.219,0,0,0,.044-.4.633.633,0,0,0-.108-.437A.645.645,0,0,0,1.1-5.244,1.917,1.917,0,0,0,.753-5.2q-.214.041-.325.07l.088-.375a5.76,5.76,0,0,1,.82-.3,2.316,2.316,0,0,1,.574-.1.925.925,0,0,1,.7.229.857.857,0,0,1,.217.615,2.376,2.376,0,0,1-.023.287,2.978,2.978,0,0,1-.07.363L2.1-1.928q-.059.229-.1.448a1.914,1.914,0,0,0-.044.36.57.57,0,0,0,.149.457.76.76,0,0,0,.483.123,2.47,2.47,0,0,0,.319-.029A1.63,1.63,0,0,0,3.229-.639Zm.416-7.488a.86.86,0,0,1-.217.583.686.686,0,0,1-.539.249.676.676,0,0,1-.516-.237.781.781,0,0,1-.217-.542.813.813,0,0,1,.217-.562.672.672,0,0,1,.516-.24.712.712,0,0,1,.545.226A.744.744,0,0,1,3.645-8.127Z" transform="translate(-0.428 8.877)" fill="#b9b9ba"/>
</svg>
